<?xml version="1.0" encoding="utf-8"?>
<!DOCTYPE svg PUBLIC "-//W3C//DTD SVG 1.0//EN" "http://www.w3.org/TR/2001/REC-SVG-20010904/DTD/svg10.dtd">
<svg version="1.0" xmlns="http://www.w3.org/2000/svg" width="512px" height="512px" viewBox="0 0 512 512"
    preserveAspectRatio="xMidYMid meet">
    <g fill="#fff">
        <path
            d="M79.6 404 c-4.2 -1.3 -9 -4.9 -11.7 -8.8 -2 -3 -2.4 -4.8 -2.4 -11.2 0 -6.4 0.4 -8.2 2.4 -11.2 2.9 -4.1 7.5 -7.5 12.2 -8.8 2 -0.6 26 -1 59.4 -1 54.1 0 56.1 0.1 60.5 2.1 2.4 1.1 5.3 2.8 6.4 3.7 2.8 2.5 6.6 11.2 6.6 15.2 0 4 -3.8 12.7 -6.6 15.2 -1.1 0.9 -4 2.6 -6.4 3.7 -4.4 2 -6.3 2.1 -61 2 -31.1 0 -57.8 -0.5 -59.4 -0.9z" />
        <path
            d="M79.6 276 c-4.2 -1.3 -9 -4.9 -11.7 -8.8 -2 -3 -2.4 -4.8 -2.4 -11.2 0 -6.4 0.4 -8.2 2.4 -11.2 2.9 -4.1 7.5 -7.5 12.2 -8.8 4.6 -1.3 219.2 -1.3 223.8 0 4.7 1.3 9.3 4.7 12.2 8.8 2 3 2.4 4.8 2.4 11.2 0 6.4 -0.4 8.2 -2.4 11.2 -2.9 4.1 -7.5 7.5 -12.2 8.8 -4.2 1.2 -220.2 1.2 -224.3 0z" />
        <path
            d="M79.6 148 c-4.2 -1.3 -9 -4.9 -11.7 -8.8 -2 -3 -2.4 -4.8 -2.4 -11.2 0 -6.4 0.4 -8.2 2.4 -11.2 2.9 -4.1 7.5 -7.5 12.2 -8.8 4.6 -1.4 347.2 -1.4 351.8 0 4.7 1.3 9.3 4.7 12.2 8.8 2 3 2.4 4.8 2.4 11.2 0 6.4 -0.4 8.2 -2.4 11.2 -2.9 4.1 -7.5 7.5 -12.2 8.8 -4.3 1.2 -348.2 1.2 -352.3 0z" />
    </g>
</svg>