<?xml version="1.0" encoding="UTF-8" standalone="no"?>
<!DOCTYPE svg PUBLIC "-//W3C//DTD SVG 1.1//EN" "http://www.w3.org/Graphics/SVG/1.1/DTD/svg11.dtd">
<svg xmlns="http://www.w3.org/2000/svg" version="1.1" viewBox="0.00 0.00 512.00 512.00">
  <path fill="#fff" d="
  M 512.00 201.07
  L 512.00 204.56
  C 511.55 207.08 511.23 209.67 510.51 212.12
  Q 489.13 285.35 467.66 358.56
  Q 463.68 372.12 460.98 377.19
  C 453.80 390.64 440.76 400.66 425.91 403.96
  Q 420.05 405.26 406.00 405.26
  Q 312.15 405.23 218.27 405.27
  Q 208.14 405.27 202.33 403.96
  C 181.13 399.16 167.59 384.83 161.66 364.15
  Q 129.11 250.78 96.67 137.37
  Q 93.31 125.63 90.45 121.17
  C 83.25 109.97 72.73 106.73 59.59 106.75
  Q 37.48 106.77 15.36 106.73
  C 7.15 106.72 1.61 105.53 0.00 96.93
  L 0.00 94.95
  C 1.71 86.26 7.37 85.28 15.65 85.27
  C 39.05 85.22 55.30 84.58 68.48 85.63
  C 86.45 87.07 101.91 97.78 110.39 113.03
  Q 113.22 118.11 116.04 127.90
  Q 122.15 149.07 128.27 170.23
  Q 128.42 170.75 128.96 170.75
  Q 304.64 170.75 480.24 170.75
  C 497.30 170.75 510.52 184.02 512.00 201.07
  Z
  M 182.25 358.58
  C 185.78 370.84 193.24 379.91 205.97 383.04
  Q 209.85 384.00 220.61 384.00
  Q 314.94 384.01 409.30 383.99
  Q 418.31 383.99 422.95 382.61
  C 434.69 379.12 441.78 370.82 445.18 359.27
  Q 467.03 284.98 488.76 210.65
  C 492.59 197.54 489.12 191.99 475.19 191.99
  Q 305.23 192.01 135.80 192.00
  Q 134.51 192.00 134.86 193.24
  Q 158.59 276.33 182.25 358.58
  Z" />
  <path fill="#fff" d="
  M 236.42 512.00
  L 233.20 512.00
  Q 209.85 510.31 198.06 491.18
  C 187.33 473.76 191.41 450.53 206.63 437.32
  C 226.66 419.93 258.42 424.53 271.70 448.17
  C 287.63 476.54 268.03 509.91 236.42 512.00
  Z
  M 255.94 469.32
  A 21.27 21.27 0.0 0 0 234.67 448.05
  A 21.27 21.27 0.0 0 0 213.40 469.32
  A 21.27 21.27 0.0 0 0 234.67 490.59
  A 21.27 21.27 0.0 0 0 255.94 469.32
  Z" />
  <path fill="#fff" d="
  M 385.68 512.00
  L 382.19 512.00
  Q 354.01 509.37 343.99 484.20
  C 338.15 469.54 342.32 450.13 354.12 438.90
  C 380.59 413.71 423.77 430.08 426.52 466.59
  C 428.33 490.71 409.60 510.23 385.68 512.00
  Z
  M 405.27 469.33
  A 21.27 21.27 0.0 0 0 384.00 448.06
  A 21.27 21.27 0.0 0 0 362.73 469.33
  A 21.27 21.27 0.0 0 0 384.00 490.60
  A 21.27 21.27 0.0 0 0 405.27 469.33
  Z" />
</svg>