<?xml version="1.0" encoding="UTF-8"?>
<svg id="Layer_2" data-name="Layer 2" xmlns="http://www.w3.org/2000/svg" viewBox="0 0 363.5 76.38">
  <defs>
    <style>
      .cls-1 {
        fill: #e25e3e;
      }

      .cls-2 {
        fill: #ff9b50;
      }
    </style>
  </defs>
  <g id="Layer_1-2" data-name="Layer 1">
    <g>
      <path class="cls-1" d="M22.5,26.12H62.62c-.27-.43-.46-.74-.66-1.04-4.35-6.52-8.71-13.04-13.03-19.59-.43-.65-.75-1.47-.82-2.24-.13-1.37,.75-2.54,1.99-3.03,1.27-.5,2.72-.15,3.63,.91,.33,.39,.6,.83,.88,1.25,5.11,7.66,10.22,15.31,15.31,22.98,.41,.62,.84,.84,1.57,.83,3.38-.04,6.76-.04,10.13,0,2.54,.03,4.12,2.24,3.25,4.44-.51,1.29-1.66,2.08-3.25,2-1.12-.06-1.56,.26-1.79,1.42-2.08,10.7-4.26,21.37-6.37,32.07-1.22,6.19-5.8,10.2-12.1,10.23-12.55,.06-25.11,.02-37.67,.02-5.43,0-10.91-3.55-12.26-10.97-1.93-10.62-4.2-21.18-6.28-31.77-.15-.78-.45-1.03-1.2-.97-.54,.04-1.11,.02-1.62-.11C.92,32.16-.07,30.73,0,29.3c.07-1.52,1.18-2.77,2.71-3.02,.4-.07,.81-.08,1.22-.08,3.14,0,6.28-.03,9.42,.02,.91,.01,1.46-.24,1.99-1.03,5.07-7.68,10.19-15.33,15.3-22.99,.19-.28,.37-.58,.57-.85,1.1-1.43,3.02-1.75,4.46-.75,1.39,.96,1.82,2.87,.89,4.36-1.05,1.68-2.18,3.3-3.27,4.95-3.37,5.05-6.73,10.1-10.1,15.15-.2,.3-.39,.62-.68,1.08Zm-10.86,6.58c.03,.3,.03,.51,.07,.7,2.1,10.52,4.2,21.04,6.31,31.57,.65,3.24,2.73,4.92,6.06,4.92,12.32,0,24.63,0,36.95,0,3.41,0,5.44-1.73,6.11-5.11,1.81-9.12,3.65-18.24,5.47-27.36,.31-1.55,.6-3.1,.91-4.72H11.64Z"/>
      <rect class="cls-2" x="29.68" y="39.92" width="7.38" height="23.79" rx="3.49" ry="3.49"/>
      <rect class="cls-2" x="48" y="39.92" width="7.38" height="23.79" rx="3.49" ry="3.49"/>
    </g>
    <g>
      <path class="cls-1" d="M123.68,46.76l7.67,6.34c.96,.81,1.56,1.42,1.82,1.84,.25,.42,.37,.83,.37,1.21,0,.92-.6,2.17-1.79,3.75-1.31,1.61-2.46,2.42-3.46,2.42-.85,0-2.02-.56-3.52-1.67l-.58-.4c-.88-.73-2.25-2.01-4.09-3.83-1.84-1.82-3.25-3.12-4.21-3.89v4.44c0,.88-.03,1.55-.09,1.99-.06,.44-.24,.95-.55,1.53-.5,1-1.98,1.5-4.44,1.5s-3.9-.52-4.44-1.56c-.27-.58-.43-1.08-.49-1.53-.06-.44-.09-1.1-.09-1.99V22.39c0-.88,.03-1.55,.09-1.99,.06-.44,.22-.95,.49-1.53,.54-1.04,2.04-1.56,4.5-1.56,1.84,0,3.15,.33,3.92,.98,.65,.54,1,1.38,1.04,2.54,.04,.35,.06,.88,.06,1.61v18.27c.69-.58,1.74-1.56,3.14-2.94,1.4-1.38,2.45-2.36,3.14-2.94l.69-.46c1.34-1.04,2.5-1.56,3.46-1.56s2.06,.78,3.31,2.33c1.25,1.56,1.87,2.78,1.87,3.66s-.71,1.92-2.13,3.11l-5.71,4.84Z"/>
      <path class="cls-1" d="M136.71,22.39c0-.88,.03-1.55,.09-1.99,.06-.44,.22-.95,.49-1.53,.54-1.04,2.04-1.56,4.5-1.56s3.8,.52,4.38,1.56c.31,.58,.49,1.1,.55,1.56,.06,.46,.09,1.13,.09,2.02v26.69c0,1.38,.12,2.26,.35,2.62,.23,.37,.74,.55,1.53,.55s1.32,.03,1.58,.09c.27,.06,.6,.22,.98,.49,.77,.5,1.15,1.86,1.15,4.09,0,2.42-.38,3.9-1.15,4.44-1,.69-3.38,.81-7.15,.35-2.96-.38-4.88-1.36-5.76-2.94-1.08-1.88-1.61-4.88-1.61-8.99V22.39Z"/>
      <path class="cls-1" d="M159.53,35.41c3.23-3,6.92-4.5,11.07-4.5s7.82,1.49,11.01,4.47c3.19,2.98,4.78,6.77,4.78,11.38,0,3.19-.83,6.02-2.48,8.5-1.65,2.48-3.66,4.3-6.02,5.48-2.36,1.17-4.81,1.76-7.35,1.76s-5-.62-7.38-1.87c-2.38-1.25-4.39-3.09-6.02-5.53-1.63-2.44-2.45-5.2-2.45-8.27,0-4.61,1.61-8.41,4.84-11.41Zm7.2,15.53c1.23,.94,2.48,1.41,3.75,1.41s2.54-.48,3.8-1.44c1.27-.96,1.9-2.38,1.9-4.27s-.6-3.29-1.79-4.21c-1.19-.92-2.48-1.38-3.86-1.38s-2.67,.48-3.86,1.44c-1.19,.96-1.79,2.37-1.79,4.24s.61,3.27,1.84,4.21Z"/>
      <path class="cls-1" d="M207.02,31.61c3.84,0,7.04,1.47,9.6,4.41,2.55,2.94,3.83,6.52,3.83,10.75v10.14c0,.88-.03,1.55-.09,1.99-.06,.44-.22,.93-.49,1.47-.54,1.04-2.04,1.56-4.5,1.56-2.73,0-4.3-.71-4.73-2.13-.23-.65-.35-1.63-.35-2.94v-10.14c0-1.58-.45-2.8-1.35-3.69-.9-.88-2.11-1.33-3.63-1.33s-2.75,.46-3.69,1.38c-.94,.92-1.41,2.13-1.41,3.63v10.2c0,.88-.03,1.55-.09,1.99-.06,.44-.24,.93-.55,1.47-.5,1.04-1.98,1.56-4.44,1.56s-3.9-.52-4.44-1.56c-.27-.58-.43-1.08-.49-1.53-.06-.44-.09-1.1-.09-1.99v-20.4c0-.84,.03-1.49,.09-1.93,.06-.44,.24-.93,.55-1.47,.54-.96,2.02-1.44,4.44-1.44s3.78,.44,4.32,1.33c.38,.65,.58,1.44,.58,2.36,.15-.27,.5-.65,1.04-1.15,.54-.5,1.06-.9,1.56-1.21,1.31-.88,2.75-1.33,4.32-1.33Z"/>
      <path class="cls-1" d="M242.12,41.81l-3.75-.23v7.95c0,1.04,.16,1.79,.49,2.25,.33,.46,.94,.69,1.84,.69s1.59,.03,2.07,.09c.48,.06,.99,.24,1.53,.55,.88,.5,1.33,1.79,1.33,3.86,0,2.42-.54,3.9-1.61,4.44-.58,.27-1.09,.43-1.53,.49-.44,.06-1.09,.09-1.93,.09-4,0-7.03-.9-9.11-2.71-2.07-1.81-3.11-4.86-3.11-9.16v-8.53c-.73,.12-1.52,.17-2.36,.17s-1.55-.33-2.1-.98c-.56-.65-.84-1.77-.84-3.34s.1-2.72,.29-3.43c.19-.71,.46-1.22,.81-1.53,.61-.5,1.38-.75,2.31-.75l1.9,.23v-5.94c0-.88,.03-1.54,.09-1.96,.06-.42,.24-.88,.55-1.38,.5-.96,1.98-1.44,4.44-1.44,2.61,0,4.17,.71,4.67,2.13,.19,.62,.29,1.59,.29,2.94v5.65c1.69-.15,2.97-.23,3.83-.23s1.52,.03,1.96,.09c.44,.06,.95,.24,1.53,.55,1,.5,1.5,1.98,1.5,4.44s-.52,3.9-1.56,4.44c-.58,.27-1.09,.43-1.53,.49-.44,.06-1.1,.09-1.99,.09Z"/>
      <path class="cls-1" d="M254.34,35.41c3.23-3,6.92-4.5,11.07-4.5s7.82,1.49,11.01,4.47c3.19,2.98,4.78,6.77,4.78,11.38,0,3.19-.83,6.02-2.48,8.5-1.65,2.48-3.66,4.3-6.02,5.48-2.36,1.17-4.81,1.76-7.35,1.76s-5-.62-7.38-1.87c-2.38-1.25-4.39-3.09-6.02-5.53-1.63-2.44-2.45-5.2-2.45-8.27,0-4.61,1.61-8.41,4.84-11.41Zm7.2,15.53c1.23,.94,2.48,1.41,3.75,1.41s2.54-.48,3.8-1.44c1.27-.96,1.9-2.38,1.9-4.27s-.6-3.29-1.79-4.21c-1.19-.92-2.48-1.38-3.86-1.38s-2.67,.48-3.86,1.44c-1.19,.96-1.79,2.37-1.79,4.24s.61,3.27,1.84,4.21Z"/>
      <path class="cls-1" d="M301.83,31.61c3.84,0,7.04,1.47,9.6,4.41,2.55,2.94,3.83,6.52,3.83,10.75v10.14c0,.88-.03,1.55-.09,1.99-.06,.44-.22,.93-.49,1.47-.54,1.04-2.04,1.56-4.5,1.56-2.73,0-4.3-.71-4.73-2.13-.23-.65-.35-1.63-.35-2.94v-10.14c0-1.58-.45-2.8-1.35-3.69-.9-.88-2.11-1.33-3.63-1.33s-2.75,.46-3.69,1.38c-.94,.92-1.41,2.13-1.41,3.63v10.2c0,.88-.03,1.55-.09,1.99-.06,.44-.24,.93-.55,1.47-.5,1.04-1.98,1.56-4.44,1.56s-3.9-.52-4.44-1.56c-.27-.58-.43-1.08-.49-1.53-.06-.44-.09-1.1-.09-1.99v-20.4c0-.84,.03-1.49,.09-1.93,.06-.44,.24-.93,.55-1.47,.54-.96,2.02-1.44,4.44-1.44s3.78,.44,4.32,1.33c.38,.65,.58,1.44,.58,2.36,.15-.27,.5-.65,1.04-1.15,.54-.5,1.06-.9,1.56-1.21,1.31-.88,2.75-1.33,4.32-1.33Z"/>
      <path class="cls-1" d="M339.12,58.18c-1.46,1.92-3.79,2.88-6.97,2.88s-6.18-1.47-8.96-4.41c-2.79-2.94-4.18-6.37-4.18-10.29s1.4-7.36,4.21-10.32c2.8-2.96,5.88-4.44,9.22-4.44,1.31,0,2.5,.24,3.57,.72,1.08,.48,1.82,.92,2.22,1.33,.4,.4,.72,.78,.95,1.12,.12-1.08,.51-1.89,1.18-2.45,.67-.56,1.76-.84,3.26-.84s2.59,.12,3.29,.35c.69,.23,1.18,.62,1.47,1.18,.29,.56,.46,1.05,.52,1.47,.06,.42,.09,1.08,.09,1.96v23.86c0,4.42-1.54,7.98-4.61,10.69-3.07,2.71-6.53,4.06-10.37,4.06-2.92,0-5.71-.71-8.36-2.13-2.65-1.42-3.98-2.71-3.98-3.86,0-1.5,.58-2.82,1.73-3.98,.73-.81,1.3-1.36,1.7-1.67,.4-.31,.87-.46,1.41-.46s1.09,.23,1.67,.69c1.84,1.42,3.84,2.13,5.99,2.13,1.46,0,2.65-.58,3.57-1.73,.92-1.15,1.38-2.54,1.38-4.15v-1.73Zm-10.26-11.79c0,1.25,.49,2.37,1.47,3.37,.98,1,2.17,1.5,3.57,1.5s2.56-.51,3.49-1.53c.92-1.02,1.38-2.13,1.38-3.34s-.44-2.34-1.33-3.4c-.88-1.06-2.08-1.58-3.57-1.58s-2.71,.52-3.63,1.56c-.92,1.04-1.38,2.18-1.38,3.43Z"/>
      <path class="cls-1" d="M362.52,52.47c.65,.65,.98,2,.98,4.03v.23c0,.92-.03,1.6-.09,2.05-.06,.44-.26,.97-.61,1.58-.58,1.11-2.03,1.67-4.35,1.67s-3.86-.36-4.61-1.1c-.75-.73-1.12-2.11-1.12-4.15v-.23c0-.88,.03-1.56,.09-2.02,.06-.46,.24-.98,.55-1.56,.58-1.15,2.03-1.73,4.35-1.73s3.93,.4,4.81,1.21Z"/>
    </g>
  </g>
</svg>